<svg width="56" height="32" viewBox="0 0 56 32" fill="none" xmlns="http://www.w3.org/2000/svg">
<path d="M6.05624 30.8161C8.54828 30.8161 10.5685 28.7959 10.5685 26.3039C10.5685 23.8119 8.54828 21.7917 6.05624 21.7917C3.5642 21.7917 1.54401 23.8119 1.54401 26.3039C1.54401 28.7959 3.5642 30.8161 6.05624 30.8161Z" stroke="#F8F8F8" stroke-width="2" stroke-linecap="round" stroke-linejoin="round"/>
<path d="M23.5074 13.3661C25.9995 13.3661 28.0196 11.3459 28.0196 8.85383C28.0196 6.36179 25.9995 4.3416 23.5074 4.3416C21.0154 4.3416 18.9952 6.36179 18.9952 8.85383C18.9952 11.3459 21.0154 13.3661 23.5074 13.3661Z" stroke="#F8F8F8" stroke-width="2" stroke-linecap="round" stroke-linejoin="round"/>
<path d="M35.6942 25.5527C38.1863 25.5527 40.2065 23.5325 40.2065 21.0404C40.2065 18.5484 38.1863 16.5282 35.6942 16.5282C33.2022 16.5282 31.182 18.5484 31.182 21.0404C31.182 23.5325 33.2022 25.5527 35.6942 25.5527Z" stroke="#F8F8F8" stroke-width="2" stroke-linecap="round" stroke-linejoin="round"/>
<path d="M50.4878 10.7604C52.9798 10.7604 55 8.74024 55 6.2482C55 3.75616 52.9798 1.73596 50.4878 1.73596C47.9957 1.73596 45.9755 3.75616 45.9755 6.2482C45.9755 8.74024 47.9957 10.7604 50.4878 10.7604Z" stroke="#F8F8F8" stroke-width="2" stroke-linecap="round" stroke-linejoin="round"/>
<path d="M47.297 9.43776L38.8839 17.8509M26.6973 12.0434L32.5034 17.8495M9.24731 23.1143L20.3196 12.042" stroke="#F8F8F8" stroke-width="2" stroke-linecap="round" stroke-linejoin="round"/>
</svg>
