<svg width="48" height="48" viewBox="0 0 48 48" fill="none" xmlns="http://www.w3.org/2000/svg">
<path d="M2 40.5C2 37.5826 3.15892 34.7847 5.22182 32.7218C7.28472 30.6589 10.0826 29.5 13 29.5H35C37.9174 29.5 40.7153 30.6589 42.7782 32.7218C44.8411 34.7847 46 37.5826 46 40.5C46 41.9587 45.4205 43.3576 44.3891 44.3891C43.3576 45.4205 41.9587 46 40.5 46H7.5C6.04131 46 4.64236 45.4205 3.61091 44.3891C2.57946 43.3576 2 41.9587 2 40.5Z" stroke="#F8F8F8" stroke-width="3" stroke-linejoin="round"/>
<path d="M24 18.5C28.5563 18.5 32.25 14.8063 32.25 10.25C32.25 5.69365 28.5563 2 24 2C19.4437 2 15.75 5.69365 15.75 10.25C15.75 14.8063 19.4437 18.5 24 18.5Z" stroke="#F8F8F8" stroke-width="3"/>
</svg>
